<?xml version="1.0" encoding="UTF-8" standalone="no"?>
<svg
   viewBox="0 0 164.32042 164.17902"
   height="164.17902"
   width="164.32042"
   xml:space="preserve"
   id="svg2"
   version="1.1"
   sodipodi:docname="Induction-Zone-logo-and-icon-clean.svg"
   inkscape:version="1.1.1 (c3084ef, 2021-09-22)"
   xmlns:inkscape="http://www.inkscape.org/namespaces/inkscape"
   xmlns:sodipodi="http://sodipodi.sourceforge.net/DTD/sodipodi-0.dtd"
   xmlns="http://www.w3.org/2000/svg"
   xmlns:svg="http://www.w3.org/2000/svg"
   xmlns:rdf="http://www.w3.org/1999/02/22-rdf-syntax-ns#"
   xmlns:cc="http://creativecommons.org/ns#"
   xmlns:dc="http://purl.org/dc/elements/1.1/"><sodipodi:namedview
     id="namedview978"
     pagecolor="#ffffff"
     bordercolor="#666666"
     borderopacity="1.0"
     inkscape:pageshadow="2"
     inkscape:pageopacity="0.0"
     inkscape:pagecheckerboard="true"
     showgrid="false"
     fit-margin-top="0"
     fit-margin-left="0"
     fit-margin-right="0"
     fit-margin-bottom="0"
     showborder="true"
     inkscape:zoom="0.47734375"
     inkscape:cx="429.4599"
     inkscape:cy="80.654664"
     inkscape:window-width="1312"
     inkscape:window-height="1027"
     inkscape:window-x="0"
     inkscape:window-y="25"
     inkscape:window-maximized="0"
     inkscape:current-layer="svg2" /><metadata
     id="metadata8"><rdf:RDF><cc:Work
         rdf:about=""><dc:format>image/svg+xml</dc:format><dc:type
           rdf:resource="http://purl.org/dc/dcmitype/StillImage" /></cc:Work></rdf:RDF></metadata><defs
     id="defs6"><clipPath
       id="clipPath18"
       clipPathUnits="userSpaceOnUse"><path
         style="clip-rule:evenodd"
         id="path16"
         d="M 0,1.2207e-4 H 960 V 540.00012 H 0 Z" /></clipPath><clipPath
       id="clipPath54"
       clipPathUnits="userSpaceOnUse"><path
         style="clip-rule:evenodd"
         id="path52"
         d="M 1.5259e-5,540 H 960 V 6.1035e-5 L 3.0518e-5,0" /></clipPath><clipPath
       id="clipPath64"
       clipPathUnits="userSpaceOnUse"><path
         style="clip-rule:evenodd"
         id="path62"
         d="M 1.5259e-5,540 H 960 V 6.1035e-5 L 3.0518e-5,0" /></clipPath><clipPath
       id="clipPath74"
       clipPathUnits="userSpaceOnUse"><path
         style="clip-rule:evenodd"
         id="path72"
         d="M 0,540 H 960 V 0 L 0,1.2207e-4" /></clipPath><clipPath
       id="clipPath84"
       clipPathUnits="userSpaceOnUse"><path
         style="clip-rule:evenodd"
         id="path82"
         d="M 0,540 H 960 V 0 L 0,1.2207e-4" /></clipPath></defs><path
     id="path22"
     style="fill:#ffc000;fill-opacity:1;fill-rule:evenodd;stroke:none;stroke-width:1.33333"
     d="m 0.3274403,83.879715 c 0.982666,45.319995 38.4826617,81.253335 83.7533317,80.279995 14.10667,-0.30666 27.906668,-4.25333 40.039998,-11.45333 L 82.307442,82.093045 Z" /><path
     id="path24"
     style="fill:#00b0f0;fill-opacity:1;fill-rule:evenodd;stroke:none;stroke-width:1.33333"
     d="m 27.667442,82.199715 c 0.06,30.226665 24.57333,54.666665 54.74666,54.613335 9.56,-0.0133 18.933338,-2.54667 27.213338,-7.33334 L 82.307442,82.093045 Z" /><path
     id="path26"
     style="fill:#7030a0;fill-opacity:1;fill-rule:evenodd;stroke:none;stroke-width:1.33333"
     d="m 55.027442,81.999715 c -0.0533,15.10666 12.12,27.399995 27.18666,27.453335 4.8,0.0133 9.52,-1.24 13.68,-3.64 L 82.307442,82.093045 Z" /><path
     id="path28"
     style="fill:#c00000;fill-opacity:1;fill-rule:evenodd;stroke:none;stroke-width:1.33333"
     d="m 121.74743,10.133045 c -39.693328,-21.8 -89.543988,-7.2666699 -111.329324,32.48 -6.9053327,12.58667 -10.3853327,26.78667 -10.0933327,41.14667 l 81.9826687,-1.66667 z" /><path
     id="path30"
     style="fill:#92d050;fill-opacity:1;fill-rule:evenodd;stroke:none;stroke-width:1.33333"
     d="m 109.84077,34.826375 c -26.066668,-15.22666 -59.519998,-6.41333 -74.730668,19.69334 -4.83333,8.29333 -7.4,17.72 -7.44266,27.33333 l 54.64,0.24 z" /><path
     id="path32"
     style="fill:#0070c0;fill-opacity:1;fill-rule:evenodd;stroke:none;stroke-width:1.33333"
     d="m 96.267442,58.586375 c -12.94667,-7.73333 -29.68,-3.48 -37.4,9.50667 -2.50667,4.22667 -3.84,9.05333 -3.84,13.97333 l 27.28,0.0267 z" /><path
     id="path34"
     style="fill:#ff0000;fill-opacity:1;fill-rule:evenodd;stroke:none;stroke-width:1.33333"
     d="m 124.2541,152.62638 c 38.92,-23.2 51.68,-73.573335 28.50667,-112.520005 -7.4,-12.45333 -17.97334,-22.72 -30.62667,-29.76 l -39.826658,71.74667 z" /><path
     id="path36"
     style="fill:#00b050;fill-opacity:1;fill-rule:evenodd;stroke:none;stroke-width:1.33333"
     d="m 109.46744,129.57305 c 26.18666,-15.02667 35.25333,-48.453335 20.25333,-74.680005 -4.74667,-8.29333 -11.58667,-15.2 -19.82667,-20.02667 l -27.586658,47.22667 z" /><path
     id="path38"
     style="fill:#002060;fill-opacity:1;fill-rule:evenodd;stroke:none;stroke-width:1.33333"
     d="m 95.840772,105.85305 c 13.079998,-7.493335 17.626658,-24.200005 10.159998,-37.333335 -2.41333,-4.22667 -5.90667,-7.73334 -10.106668,-10.16 l -13.58666,23.73333 z" /><path
     id="path40"
     style="fill:#000000;fill-opacity:1;fill-rule:evenodd;stroke:none;stroke-width:1.33333"
     d="m 78.227442,82.093045 c 0,-2.21333 1.82666,-4 4.08,-4 2.25333,0 4.08,1.78667 4.08,4 0,2.21333 -1.82667,4 -4.08,4 -2.25334,0 -4.08,-1.78667 -4.08,-4 z" /><path
     id="path42"
     style="fill:none;stroke:#000000;stroke-width:1.28;stroke-linecap:butt;stroke-linejoin:miter;stroke-miterlimit:10;stroke-dasharray:none;stroke-opacity:1"
     d="m 78.227442,82.093045 c 0,-2.21333 1.82666,-4 4.08,-4 2.25333,0 4.08,1.78667 4.08,4 0,2.21333 -1.82667,4 -4.08,4 -2.25334,0 -4.08,-1.78667 -4.08,-4 z" /><path
     id="path44"
     style="fill:#ffffff;fill-opacity:1;fill-rule:evenodd;stroke:none;stroke-width:1.33333"
     d="m 80.467442,82.493045 c 0.10666,0.36 -2.68,0.0667 -3.8,0.90667 -1.13334,0.84 1.98666,3.8 -2.97334,4.10666 -4.94666,0.29334 -14.61333,-1.66666 -26.73333,-2.30666 -12.10533,-0.62667 -50.7039987,-0.45334 -45.9266657,-1.49334 4.777334,-1.05333 62.0999957,-4.41333 74.5933357,-4.81333 0.0533,1.28 -0.4,1.94667 0.34666,2.4 0.74667,0.45333 4.37334,0.85333 4.49334,1.2 z" /><path
     id="path46"
     style="fill:none;stroke:#ffffff;stroke-width:1.28;stroke-linecap:butt;stroke-linejoin:miter;stroke-miterlimit:10;stroke-dasharray:none;stroke-opacity:1"
     d="m 80.467442,82.493045 c 0.10666,0.36 -2.68,0.0667 -3.8,0.90667 -1.13334,0.84 1.98666,3.8 -2.97334,4.10666 -4.94666,0.29334 -14.61333,-1.66666 -26.73333,-2.30666 -12.10533,-0.62667 -50.7039987,-0.45334 -45.9266657,-1.49334 4.777334,-1.05333 62.0999957,-4.41333 74.5933357,-4.81333 0.0533,1.28 -0.4,1.94667 0.34666,2.4 0.74667,0.45333 4.37334,0.85333 4.49334,1.2 z" /><g
     id="g48"
     transform="matrix(1.3333333,0,0,-1.3333333,-87.692558,442.09304)"><g
       clip-path="url(#clipPath54)"
       id="g50"><path
         id="path56"
         style="fill:#ffffff;fill-opacity:1;fill-rule:evenodd;stroke:none"
         d="m 128.37,268.62 c 0.18,0.21 1.05,-1.71 2.01,-2.13 0.97,-0.42 1.74,2.72 3.79,-0.38 2.06,-3.1 4.4,-10.13 8.53,-18.24 4.13,-8.11 18.74,-33.13 16.26,-30.42 -2.48,2.71 -26.18,38.7 -31.13,46.67 0.82,0.51 1.43,0.47 1.44,1.13 0.01,0.66 -1.09,3.16 -0.9,3.37 z" /></g></g><g
     id="g58"
     transform="matrix(1.3333333,0,0,-1.3333333,-87.692558,442.09304)"><g
       clip-path="url(#clipPath64)"
       id="g60"><path
         id="path66"
         style="fill:none;stroke:#ffffff;stroke-width:1;stroke-linecap:butt;stroke-linejoin:miter;stroke-miterlimit:10;stroke-dasharray:none;stroke-opacity:1"
         d="m 128.37,268.62 c 0.18,0.21 1.05,-1.71 2.01,-2.13 0.97,-0.42 1.74,2.72 3.79,-0.38 2.06,-3.1 4.4,-10.13 8.53,-18.24 4.13,-8.11 18.74,-33.13 16.26,-30.42 -2.48,2.71 -26.18,38.7 -31.13,46.67 0.82,0.51 1.43,0.47 1.44,1.13 0.01,0.66 -1.09,3.16 -0.9,3.37 z" /></g></g><g
     id="g68"
     transform="matrix(1.3333333,0,0,-1.3333333,-87.692558,442.09304)"><g
       clip-path="url(#clipPath74)"
       id="g70"><path
         id="path76"
         style="fill:#ffffff;fill-opacity:1;fill-rule:evenodd;stroke:none"
         d="m 128.27,271.34 c -0.27,0.06 0.96,1.76 0.84,2.81 -0.13,1.05 -3.23,0.14 -1.57,3.47 1.66,3.33 6.57,8.88 11.53,16.51 4.96,7.63 19.32,32.79 18.22,29.29 -1.11,-3.51 -20.43,-42.03 -24.85,-50.3 -0.86,0.45 -1.13,1 -1.7,0.68 -0.58,-0.31 -2.2,-2.52 -2.47,-2.46 z" /></g></g><g
     id="g78"
     transform="matrix(1.3333333,0,0,-1.3333333,-87.692558,442.09304)"><g
       clip-path="url(#clipPath84)"
       id="g80"><path
         id="path86"
         style="fill:none;stroke:#ffffff;stroke-width:1;stroke-linecap:butt;stroke-linejoin:miter;stroke-miterlimit:10;stroke-dasharray:none;stroke-opacity:1"
         d="m 128.27,271.34 c -0.27,0.06 0.96,1.76 0.84,2.81 -0.13,1.05 -3.23,0.14 -1.57,3.47 1.66,3.33 6.57,8.88 11.53,16.51 4.96,7.63 19.32,32.79 18.22,29.29 -1.11,-3.51 -20.43,-42.03 -24.85,-50.3 -0.86,0.45 -1.13,1 -1.7,0.68 -0.58,-0.31 -2.2,-2.52 -2.47,-2.46 z" /></g></g><path
     id="path88"
     style="fill:#ffffff;fill-opacity:1;fill-rule:evenodd;stroke:none;stroke-width:1.33333"
     d="m 79.027442,82.093045 c 0,-1.85333 1.50666,-3.36 3.36,-3.36 1.85333,0 3.36,1.50667 3.36,3.36 0,1.85333 -1.50667,3.36 -3.36,3.36 -1.85334,0 -3.36,-1.50667 -3.36,-3.36 z" /><path
     id="path90"
     style="fill:none;stroke:#ffffff;stroke-width:1.28;stroke-linecap:butt;stroke-linejoin:miter;stroke-miterlimit:10;stroke-dasharray:none;stroke-opacity:1"
     d="m 79.027442,82.093045 c 0,-1.85333 1.50666,-3.36 3.36,-3.36 1.85333,0 3.36,1.50667 3.36,3.36 0,1.85333 -1.50667,3.36 -3.36,3.36 -1.85334,0 -3.36,-1.50667 -3.36,-3.36 z" /></svg>
